<?xml version="1.0" encoding="UTF-8"?>
<svg id="Vrstva_1" data-name="Vrstva 1" xmlns="http://www.w3.org/2000/svg" viewBox="0 0 363.99 287.45">
  <defs>
    <style>
      .cls-1 {
        fill: none;
        stroke: #000;
        stroke-miterlimit: 10;
        stroke-width: 7px;
      }
    </style>
  </defs>
  <g>
    <rect x="178.8" y="99.3" width="6.39" height="124.33"/>
    <rect x="119.83" y="158.28" width="124.33" height="6.39" transform="translate(-13.79 305.92) rotate(-78)"/>
    <rect x="119.83" y="158.28" width="124.33" height="6.39" transform="translate(-39.54 262.05) rotate(-66)"/>
    <rect x="119.83" y="158.28" width="124.33" height="6.39" transform="translate(-55.61 213.8) rotate(-54)"/>
    <rect x="119.83" y="158.28" width="124.33" height="6.39" transform="translate(-61.3 163.25) rotate(-42)"/>
    <rect x="119.83" y="158.28" width="124.33" height="6.39" transform="translate(-56.35 112.63) rotate(-30)"/>
    <rect x="119.83" y="158.28" width="124.33" height="6.39" transform="translate(-40.99 64.14) rotate(-18)"/>
    <rect x="119.83" y="158.28" width="124.33" height="6.39" transform="translate(-15.88 19.91) rotate(-6)"/>
    <rect x="178.8" y="99.3" width="6.39" height="124.33" transform="translate(2.39 325.59) rotate(-84)"/>
    <rect x="178.8" y="99.3" width="6.39" height="124.33" transform="translate(-27.81 284.66) rotate(-72)"/>
    <rect x="178.8" y="99.3" width="6.39" height="124.33" transform="translate(-48.84 238.35) rotate(-60)"/>
    <rect x="178.8" y="99.3" width="6.39" height="124.33" transform="translate(-59.78 188.67) rotate(-48)"/>
    <rect x="178.8" y="99.3" width="6.39" height="124.33" transform="translate(-60.15 137.81) rotate(-36)"/>
    <rect x="178.8" y="99.3" width="6.39" height="124.33" transform="translate(-49.94 87.98) rotate(-24)"/>
    <rect x="178.8" y="99.3" width="6.39" height="124.33" transform="translate(-29.59 41.37) rotate(-12)"/>
    <rect x="178.8" y="99.3" width="6.39" height="124.33"/>
    <rect x="119.83" y="158.28" width="124.33" height="6.39" transform="translate(-13.79 305.92) rotate(-78)"/>
    <rect x="119.83" y="158.28" width="124.33" height="6.39" transform="translate(-39.54 262.05) rotate(-66)"/>
    <rect x="119.83" y="158.28" width="124.33" height="6.39" transform="translate(-55.61 213.8) rotate(-54)"/>
    <rect x="119.83" y="158.28" width="124.33" height="6.39" transform="translate(-61.3 163.25) rotate(-42)"/>
    <rect x="119.83" y="158.28" width="124.33" height="6.39" transform="translate(-56.35 112.63) rotate(-30)"/>
    <rect x="119.83" y="158.28" width="124.33" height="6.39" transform="translate(-40.99 64.14) rotate(-18)"/>
    <rect x="119.83" y="158.28" width="124.33" height="6.39" transform="translate(-15.88 19.91) rotate(-6)"/>
    <rect x="178.8" y="99.3" width="6.39" height="124.33" transform="translate(2.39 325.59) rotate(-84)"/>
    <rect x="178.8" y="99.3" width="6.39" height="124.33" transform="translate(-27.81 284.66) rotate(-72)"/>
    <rect x="178.8" y="99.3" width="6.39" height="124.33" transform="translate(-48.84 238.35) rotate(-60)"/>
    <rect x="178.8" y="99.3" width="6.39" height="124.33" transform="translate(-59.78 188.67) rotate(-48)"/>
    <rect x="178.8" y="99.3" width="6.39" height="124.33" transform="translate(-60.15 137.81) rotate(-36)"/>
    <rect x="178.8" y="99.3" width="6.39" height="124.33" transform="translate(-49.94 87.98) rotate(-24)"/>
    <rect x="178.8" y="99.3" width="6.39" height="124.33" transform="translate(-29.59 41.37) rotate(-12)"/>
    <rect x="178.8" y="99.3" width="6.39" height="124.33"/>
  </g>
  <g>
    <path class="cls-1" d="M62.1,161.47c49.7,98.32,190.09,98.32,239.79,0h0s0,0,0,0c-49.7-98.32-190.09-98.32-239.79,0h0s0,0,0,0Z"/>
    <line class="cls-1" x1="294.11" y1="148.15" x2="294.11" y2="112.65"/>
    <line class="cls-1" x1="266.08" y1="116.53" x2="266.08" y2="81.04"/>
    <line class="cls-1" x1="238.05" y1="98.79" x2="238.05" y2="63.3"/>
    <line class="cls-1" x1="210.02" y1="91.28" x2="210.02" y2="55.79"/>
    <line class="cls-1" x1="181.99" y1="87.73" x2="181.99" y2="52.24"/>
    <line class="cls-1" x1="153.97" y1="91.28" x2="153.97" y2="55.79"/>
    <line class="cls-1" x1="125.94" y1="98.79" x2="125.94" y2="63.3"/>
    <line class="cls-1" x1="97.91" y1="116.53" x2="97.91" y2="81.04"/>
    <line class="cls-1" x1="69.88" y1="148.15" x2="69.88" y2="112.65"/>
  </g>
</svg>