<?xml version="1.0" encoding="UTF-8"?>
<svg id="Vrstva_1" data-name="Vrstva 1" xmlns="http://www.w3.org/2000/svg" viewBox="0 0 363.99 287.45">
  <defs>
    <style>
      .cls-1 {
        fill: none;
        stroke: #000;
        stroke-miterlimit: 10;
        stroke-width: 7px;
      }
    </style>
  </defs>
  <path class="cls-1" d="M301.89,125.98c-49.7-98.32-190.09-98.32-239.79,0h0s0,0,0,0c49.7,98.32,190.09,98.32,239.79,0h0s0,0,0,0Z"/>
  <line class="cls-1" x1="69.88" y1="139.3" x2="69.88" y2="174.79"/>
  <line class="cls-1" x1="97.91" y1="170.92" x2="97.91" y2="206.41"/>
  <line class="cls-1" x1="125.94" y1="188.66" x2="125.94" y2="224.15"/>
  <line class="cls-1" x1="153.97" y1="196.16" x2="153.97" y2="231.65"/>
  <line class="cls-1" x1="181.99" y1="199.72" x2="181.99" y2="235.21"/>
  <line class="cls-1" x1="210.02" y1="196.16" x2="210.02" y2="231.65"/>
  <line class="cls-1" x1="238.05" y1="188.66" x2="238.05" y2="224.15"/>
  <line class="cls-1" x1="266.08" y1="170.92" x2="266.08" y2="206.41"/>
  <line class="cls-1" x1="294.11" y1="139.3" x2="294.11" y2="174.79"/>
</svg>