<?xml version="1.0" encoding="UTF-8"?>
<svg id="Vrstva_1" data-name="Vrstva 1" xmlns="http://www.w3.org/2000/svg" viewBox="0 0 363.99 287.45">
  <defs>
    <style>
      .cls-1 {
        fill: none;
        stroke: #000;
        stroke-miterlimit: 10;
        stroke-width: 7px;
      }
    </style>
  </defs>
  <g>
    <rect x="180.39" y="99.24" width="3.2" height="62.32"/>
    <rect x="157.31" y="129.48" width="62.32" height="3.2" transform="translate(21.07 288.18) rotate(-78)"/>
    <rect x="163.51" y="131.49" width="62.32" height="3.2" transform="translate(-6.1 256.8) rotate(-66)"/>
    <rect x="169.15" y="134.75" width="62.32" height="3.2" transform="translate(-27.74 218.26) rotate(-54)"/>
    <rect x="173.99" y="139.11" width="62.32" height="3.2" transform="translate(-41.46 173.41) rotate(-42)"/>
    <rect x="177.82" y="144.38" width="62.32" height="3.2" transform="translate(-44.99 124.05) rotate(-30)"/>
    <rect x="180.47" y="150.33" width="62.32" height="3.2" transform="translate(-36.59 72.83) rotate(-18)"/>
    <rect x="181.82" y="156.7" width="62.32" height="3.2" transform="translate(-15.38 23.13) rotate(-6)"/>
    <rect x="211.38" y="133.66" width="3.2" height="62.32" transform="translate(26.81 359.4) rotate(-84)"/>
    <rect x="210.03" y="140.03" width="3.2" height="62.32" transform="translate(-16.58 319.56) rotate(-72)"/>
    <rect x="207.38" y="145.98" width="3.2" height="62.32" transform="translate(-48.92 269.55) rotate(-60)"/>
    <rect x="203.55" y="151.25" width="3.2" height="62.32" transform="translate(-67.68 212.81) rotate(-48)"/>
    <rect x="198.71" y="155.61" width="3.2" height="62.32" transform="translate(-71.52 153.41) rotate(-36)"/>
    <rect x="193.07" y="158.87" width="3.2" height="62.32" transform="translate(-60.46 95.61) rotate(-24)"/>
    <rect x="186.87" y="160.88" width="3.2" height="62.32" transform="translate(-35.81 43.38) rotate(-12)"/>
    <rect x="180.39" y="161.56" width="3.2" height="62.32"/>
    <rect x="144.36" y="190.44" width="62.32" height="3.2" transform="translate(-48.82 323.79) rotate(-78)"/>
    <rect x="138.16" y="188.42" width="62.32" height="3.2" transform="translate(-73.14 267.42) rotate(-66)"/>
    <rect x="132.52" y="185.17" width="62.32" height="3.2" transform="translate(-83.63 209.41) rotate(-54)"/>
    <rect x="127.68" y="180.81" width="62.32" height="3.2" transform="translate(-81.26 153.14) rotate(-42)"/>
    <rect x="123.85" y="175.54" width="62.32" height="3.2" transform="translate(-67.8 101.24) rotate(-30)"/>
    <rect x="121.2" y="169.59" width="62.32" height="3.2" transform="translate(-45.44 55.46) rotate(-18)"/>
    <rect x="119.85" y="163.22" width="62.32" height="3.2" transform="translate(-16.4 16.69) rotate(-6)"/>
    <rect x="149.41" y="127.14" width="3.2" height="62.32" transform="translate(-22.21 291.93) rotate(-84)"/>
    <rect x="150.76" y="120.77" width="3.2" height="62.32" transform="translate(-39.22 249.88) rotate(-72)"/>
    <rect x="153.41" y="114.82" width="3.2" height="62.32" transform="translate(-48.92 207.23) rotate(-60)"/>
    <rect x="157.24" y="109.55" width="3.2" height="62.32" transform="translate(-52.01 164.6) rotate(-48)"/>
    <rect x="162.08" y="105.19" width="3.2" height="62.32" transform="translate(-48.89 122.25) rotate(-36)"/>
    <rect x="167.72" y="101.93" width="3.2" height="62.32" transform="translate(-39.5 80.38) rotate(-24)"/>
    <rect x="173.92" y="99.92" width="3.2" height="62.32" transform="translate(-23.42 39.36) rotate(-12)"/>
    <rect x="180.39" y="99.24" width="3.2" height="62.32"/>
  </g>
  <g>
    <path class="cls-1" d="M62.1,161.47c49.7,98.32,190.09,98.32,239.79,0h0s0,0,0,0c-49.7-98.32-190.09-98.32-239.79,0h0s0,0,0,0Z"/>
    <line class="cls-1" x1="294.11" y1="148.15" x2="294.11" y2="112.65"/>
    <line class="cls-1" x1="266.08" y1="116.53" x2="266.08" y2="81.04"/>
    <line class="cls-1" x1="238.05" y1="98.79" x2="238.05" y2="63.3"/>
    <line class="cls-1" x1="210.02" y1="91.28" x2="210.02" y2="55.79"/>
    <line class="cls-1" x1="181.99" y1="87.73" x2="181.99" y2="52.24"/>
    <line class="cls-1" x1="153.97" y1="91.28" x2="153.97" y2="55.79"/>
    <line class="cls-1" x1="125.94" y1="98.79" x2="125.94" y2="63.3"/>
    <line class="cls-1" x1="97.91" y1="116.53" x2="97.91" y2="81.04"/>
    <line class="cls-1" x1="69.88" y1="148.15" x2="69.88" y2="112.65"/>
  </g>
</svg>