<?xml version="1.0" encoding="UTF-8"?>
<svg id="Vrstva_1" data-name="Vrstva 1" xmlns="http://www.w3.org/2000/svg" viewBox="0 0 288.59 143.47">
  <path d="M232.05,85.24c-10.36,0-15.58-5.95-20.18-11.2-4.15-4.73-7.73-8.81-14.92-8.81s-10.77,4.08-14.92,8.81c-4.6,5.25-9.82,11.2-20.18,11.2s-15.58-5.95-20.18-11.2c-4.15-4.73-7.73-8.81-14.92-8.81s-10.77,4.08-14.92,8.81c-4.6,5.25-9.82,11.2-20.19,11.2s-15.58-5.95-20.19-11.2c-4.15-4.73-7.73-8.81-14.92-8.81v-7c10.36,0,15.58,5.95,20.19,11.2,4.15,4.73,7.73,8.81,14.92,8.81s10.77-4.08,14.92-8.81c4.6-5.25,9.82-11.2,20.19-11.2s15.58,5.95,20.18,11.2c4.15,4.73,7.73,8.81,14.92,8.81s10.77-4.08,14.92-8.81c4.6-5.25,9.82-11.2,20.18-11.2s15.58,5.95,20.18,11.2c4.15,4.73,7.73,8.81,14.92,8.81v7Z"/>
</svg>