<?xml version="1.0" encoding="UTF-8"?><svg id="Vrstva_1" xmlns="http://www.w3.org/2000/svg" viewBox="0 0 363.99 287.45"><defs><style>.cls-1{fill:none;stroke:#000;stroke-miterlimit:10;stroke-width:5.84px;}</style></defs><g><g><rect x="172.21" y="52.24" width="2.67" height="51.96"/><rect x="152.97" y="77.46" width="51.96" height="2.67" transform="translate(64.68 237.45) rotate(-78)"/><rect x="158.14" y="79.13" width="51.96" height="2.67" transform="translate(35.72 215.94) rotate(-66)"/><rect x="162.84" y="81.85" width="51.96" height="2.67" transform="translate(10.54 187.05) rotate(-54)"/><rect x="166.88" y="85.48" width="51.96" height="2.67" transform="translate(-8.56 151.35) rotate(-42)"/><rect x="170.07" y="89.88" width="51.96" height="2.67" transform="translate(-19.34 110.24) rotate(-30)"/><rect x="172.28" y="94.84" width="51.96" height="2.67" transform="translate(-20.02 65.97) rotate(-18)"/><rect x="173.41" y="100.15" width="51.96" height="2.67" transform="translate(-9.52 21.4) rotate(-6)"/><rect x="198.05" y="80.94" width="2.67" height="51.96" transform="translate(72.21 294.04) rotate(-84)"/><rect x="196.92" y="86.25" width="2.67" height="51.96" transform="translate(30.26 266.1) rotate(-72)"/><rect x="194.71" y="91.21" width="2.67" height="51.96" transform="translate(-3.47 228.38) rotate(-60)"/><rect x="191.52" y="95.61" width="2.67" height="51.96" transform="translate(-26.55 183.55) rotate(-48)"/><rect x="187.48" y="99.24" width="2.67" height="51.96" transform="translate(-37.54 134.9) rotate(-36)"/><rect x="182.78" y="101.96" width="2.67" height="51.96" transform="translate(-36.12 85.95) rotate(-24)"/><rect x="177.62" y="103.63" width="2.67" height="51.96" transform="translate(-23.04 40.04) rotate(-12)"/><rect x="172.21" y="104.2" width="2.67" height="51.96"/><rect x="142.17" y="128.28" width="51.96" height="2.67" transform="translate(6.41 267.14) rotate(-78)"/><rect x="137" y="126.6" width="51.96" height="2.67" transform="translate(-20.18 224.79) rotate(-66)"/><rect x="132.3" y="123.89" width="51.96" height="2.67" transform="translate(-36.06 179.67) rotate(-54)"/><rect x="128.26" y="120.25" width="51.96" height="2.67" transform="translate(-41.74 134.44) rotate(-42)"/><rect x="125.07" y="115.86" width="51.96" height="2.67" transform="translate(-38.36 91.23) rotate(-30)"/><rect x="122.86" y="110.9" width="51.96" height="2.67" transform="translate(-27.4 51.49) rotate(-18)"/><rect x="121.73" y="105.58" width="51.96" height="2.67" transform="translate(-10.37 16.03) rotate(-6)"/><rect x="146.38" y="75.51" width="2.67" height="51.96" transform="translate(31.34 237.78) rotate(-84)"/><rect x="147.51" y="70.19" width="2.67" height="51.96" transform="translate(11.38 208.01) rotate(-72)"/><rect x="149.72" y="65.23" width="2.67" height="51.96" transform="translate(-3.47 176.42) rotate(-60)"/><rect x="152.91" y="60.84" width="2.67" height="51.96" transform="translate(-13.48 143.35) rotate(-48)"/><rect x="156.94" y="57.2" width="2.67" height="51.96" transform="translate(-18.67 108.92) rotate(-36)"/><rect x="161.65" y="54.49" width="2.67" height="51.96" transform="translate(-18.64 73.25) rotate(-24)"/><rect x="166.81" y="52.81" width="2.67" height="51.96" transform="translate(-12.71 36.68) rotate(-12)"/><rect x="172.21" y="52.24" width="2.67" height="51.96"/></g><g><path class="cls-1" d="M73.59,104.13c41.43,81.97,158.49,81.97,199.93,0h0c-41.43-81.97-158.49-81.97-199.93,0h0Z"/><line class="cls-1" x1="267.03" y1="93.02" x2="267.03" y2="63.43"/><line class="cls-1" x1="243.66" y1="66.66" x2="243.66" y2="37.07"/><line class="cls-1" x1="220.29" y1="51.86" x2="220.29" y2="22.27"/><line class="cls-1" x1="196.92" y1="45.61" x2="196.92" y2="16.02"/><line class="cls-1" x1="173.55" y1="42.65" x2="173.55" y2="13.06"/><line class="cls-1" x1="150.18" y1="45.61" x2="150.18" y2="16.02"/><line class="cls-1" x1="126.81" y1="51.86" x2="126.81" y2="22.27"/><line class="cls-1" x1="103.44" y1="66.66" x2="103.44" y2="37.07"/><line class="cls-1" x1="80.07" y1="93.02" x2="80.07" y2="63.43"/></g></g><g><path class="cls-1" d="M273.51,185.12c-41.43-81.97-158.49-81.97-199.93,0h0c41.43,81.97,158.49,81.97,199.93,0h0Z"/><line class="cls-1" x1="80.07" y1="196.22" x2="80.07" y2="225.82"/><line class="cls-1" x1="103.44" y1="222.58" x2="103.44" y2="252.17"/><line class="cls-1" x1="126.81" y1="237.38" x2="126.81" y2="266.97"/><line class="cls-1" x1="150.18" y1="243.63" x2="150.18" y2="273.22"/><line class="cls-1" x1="173.55" y1="246.6" x2="173.55" y2="276.19"/><line class="cls-1" x1="196.92" y1="243.63" x2="196.92" y2="273.22"/><line class="cls-1" x1="220.29" y1="237.38" x2="220.29" y2="266.97"/><line class="cls-1" x1="243.66" y1="222.58" x2="243.66" y2="252.17"/><line class="cls-1" x1="267.03" y1="196.22" x2="267.03" y2="225.82"/></g></svg>