<?xml version="1.0" encoding="UTF-8"?>
<svg id="Vrstva_1" data-name="Vrstva 1" xmlns="http://www.w3.org/2000/svg" viewBox="0 0 477.76 177.77">
  <path d="M46.68,67.26c-2.34-2.14-3.49-3.23-5.78-5.44,8.37-8.64,16.75-17.28,25.12-25.92,2,1.94,3.01,2.89,5.05,4.77-8.13,8.87-16.25,17.73-24.38,26.6Z"/>
  <path d="M69.59,86.16c-2.49-1.85-3.73-2.79-6.19-4.72,7.42-9.45,14.84-18.91,22.25-28.36,2.14,1.69,3.22,2.51,5.4,4.13-7.16,9.65-14.31,19.3-21.47,28.95Z"/>
  <path d="M93.89,102.3c-2.63-1.56-3.94-2.36-6.53-3.99,6.4-10.15,12.81-20.3,19.21-30.45,2.27,1.43,3.41,2.13,5.7,3.5-6.13,10.31-12.26,20.63-18.39,30.94Z"/>
  <path d="M119.37,115.69c-2.74-1.27-4.11-1.92-6.82-3.26,5.34-10.73,10.68-21.46,16.02-32.19,2.37,1.18,3.56,1.75,5.96,2.86-5.05,10.87-10.11,21.73-15.16,32.6Z"/>
  <path d="M145.8,126.32c-2.83-.98-4.24-1.48-7.05-2.54,4.24-11.2,8.47-22.39,12.71-33.59,2.45,.92,3.69,1.37,6.16,2.23-3.94,11.3-7.88,22.6-11.82,33.9Z"/>
  <path d="M172.97,134.2c-2.9-.69-4.34-1.05-7.22-1.81,3.1-11.55,6.2-23.09,9.3-34.64,2.52,.67,3.78,.99,6.31,1.59-2.8,11.62-5.6,23.24-8.39,34.86Z"/>
  <path d="M200.65,139.33c-2.94-.4-4.41-.61-7.34-1.08,1.94-11.78,3.89-23.56,5.83-35.34,2.56,.42,3.85,.61,6.42,.96-1.64,11.82-3.27,23.64-4.91,35.46Z"/>
  <path d="M228.63,141.7c-2.96-.1-4.44-.18-7.4-.36,.77-11.9,1.54-23.79,2.32-35.69,2.59,.16,3.88,.23,6.47,.32-.46,11.91-.93,23.82-1.39,35.73Z"/>
  <path d="M256.69,141.31c-2.96,.19-4.44,.26-7.4,.37-.4-11.9-.81-23.8-1.21-35.7,2.59-.09,3.88-.15,6.47-.31,.71,11.88,1.42,23.76,2.14,35.64Z"/>
  <path d="M284.6,138.18c-2.93,.48-4.4,.69-7.34,1.09-1.57-11.79-3.14-23.57-4.72-35.36,2.57-.35,3.85-.54,6.42-.95,1.88,11.74,3.76,23.48,5.64,35.21Z"/>
  <path d="M312.16,132.29c-2.88,.77-4.32,1.13-7.22,1.82-2.73-11.56-5.46-23.12-8.18-34.68,2.53-.6,3.8-.92,6.32-1.58,3.03,11.48,6.06,22.96,9.09,34.44Z"/>
  <path d="M339.14,123.65c-2.81,1.06-4.22,1.57-7.05,2.55-3.86-11.22-7.72-22.43-11.58-33.65,2.48-.85,3.71-1.3,6.17-2.22,4.15,11.11,8.31,22.21,12.46,33.32Z"/>
  <path d="M365.32,112.25c-2.71,1.35-4.08,2-6.81,3.27-4.96-10.76-9.92-21.52-14.88-32.28,2.4-1.11,3.59-1.68,5.96-2.85,5.24,10.62,10.48,21.24,15.73,31.86Z"/>
  <path d="M390.47,98.11c-2.59,1.64-3.9,2.44-6.52,4-6.02-10.19-12.03-20.37-18.05-30.56,2.3-1.36,3.44-2.06,5.71-3.49,6.29,10.02,12.57,20.03,18.86,30.05Z"/>
  <path d="M414.4,81.21c-2.45,1.93-3.69,2.87-6.18,4.72-7.02-9.5-14.05-19-21.07-28.5,2.18-1.62,3.26-2.44,5.41-4.12,7.28,9.3,14.56,18.6,21.83,27.9Z"/>
  <path d="M436.86,61.56c-2.29,2.22-3.44,3.31-5.77,5.45-7.97-8.7-15.94-17.4-23.91-26.1,2.04-1.87,3.05-2.82,5.06-4.76,8.21,8.47,16.41,16.94,24.62,25.41Z"/>
</svg>